Coordinates
version=1
nRows=42
nColumns=38
inDegrees=no

Units are S.I. units (second, meters, Newtons, ...)
If the header above contains a line with 'inDegrees', this indicates whether rotational values are in degrees (yes) or radians (no).

endheader
time	pelvis_tilt	pelvis_list	pelvis_rotation	pelvis_tx	pelvis_ty	pelvis_tz	hip_flexion_r	hip_adduction_r	hip_rotation_r	knee_angle_r	ankle_angle_r	subtalar_angle_r	mtp_angle_r	hip_flexion_l	hip_adduction_l	hip_rotation_l	knee_angle_l	ankle_angle_l	subtalar_angle_l	mtp_angle_l	lumbar_extension	lumbar_bending	lumbar_rotation	arm_flex_r	arm_add_r	arm_rot_r	elbow_flex_r	pro_sup_r	wrist_flex_r	wrist_dev_r	arm_flex_l	arm_add_l	arm_rot_l	elbow_flex_l	pro_sup_l	wrist_flex_l	wrist_dev_l
15	2.80726	1.39575	-0.903072	0.605993	-1.22575	0.943207	0.0451755	-0.0459273	-0.250792	0.362043	-0.385512	0	0	-0.336517	-0.047061	-0.0231527	0	-0.26539	0	0	-0.335433	0.091987	-0.284194	0.124975	-0.522115	0.26626	2.01079	1.5708	0	0	-0.129944	-0.384478	-0.798652	1.36579	1.5708	0	0
15.01	2.80446	1.39612	-0.90124	0.606358	-1.22525	0.94311	0.0454839	-0.0453138	-0.250841	0.362184	-0.38721	0	0	-0.336539	-0.0474265	-0.0227837	0	-0.265336	0	0	-0.335514	0.0914156	-0.284667	0.123336	-0.520954	0.266502	2.01248	1.5708	0	0	-0.13037	-0.383725	-0.800665	1.36658	1.5708	0	0
15.02	2.75895	1.37401	-0.85303	0.605232	-1.22656	0.947975	0.0344953	-0.0164176	-0.274142	0.395722	-0.382351	0	0	-0.351945	-0.0677827	-0.017106	0	-0.28069	0	0	-0.355836	0.109172	-0.28488	0.160372	-0.569163	0.315622	2.00003	1.5708	0	0	-0.125125	-0.375702	-0.804862	1.37155	1.5708	0	0
15.03	2.78872	1.36257	-0.883232	0.605555	-1.22668	0.948127	0.024953	-0.0154327	-0.281924	0.407101	-0.37675	0	0	-0.362854	-0.071311	-0.0238299	0	-0.279011	0	0	-0.371662	0.119939	-0.282425	0.136339	-0.524732	0.271708	2.01097	1.5708	0	0	-0.119589	-0.375493	-0.804832	1.3636	1.5708	0	0
15.04	2.8624	1.37445	-0.95232	0.599695	-1.22829	0.946885	0.0217376	-0.0413376	-0.281801	0.397482	-0.372894	0	0	-0.361087	-0.0417952	-0.00958662	0	-0.277991	0	0	-0.371394	0.112939	-0.29247	0.141848	-0.53896	0.270147	2.01887	1.5708	0	0	-0.115455	-0.362608	-0.802782	1.3645	1.5708	0	0
15.05	2.79243	1.36138	-0.888573	0.606221	-1.22586	0.948145	0.024219	-0.0147423	-0.281304	0.410318	-0.371539	0	0	-0.365405	-0.0718731	-0.0234362	0	-0.277629	0	0	-0.375633	0.119193	-0.281643	0.136001	-0.52443	0.272383	2.01458	1.5708	0	0	-0.117686	-0.374421	-0.806513	1.36437	1.5708	0	0
15.06	2.79472	1.36119	-0.891794	0.606565	-1.22546	0.948149	0.0238851	-0.0145822	-0.280397	0.411015	-0.370899	0	0	-0.36626	-0.0718764	-0.023959	0	-0.277341	0	0	-0.377012	0.118553	-0.282057	0.137645	-0.523979	0.27422	2.01495	1.5708	0	0	-0.117295	-0.37387	-0.808002	1.36441	1.5708	0	0
15.07	2.79775	1.36094	-0.895676	0.606869	-1.22509	0.948167	0.0234933	-0.0146515	-0.279395	0.411975	-0.370207	0	0	-0.367177	-0.0717385	-0.0248008	0	-0.27726	0	0	-0.37854	0.117944	-0.282653	0.139943	-0.52368	0.276204	2.01497	1.5708	0	0	-0.116644	-0.373155	-0.809726	1.36443	1.5708	0	0
15.08	2.80151	1.36138	-0.899929	0.607129	-1.22481	0.948224	0.023712	-0.0153691	-0.278272	0.412934	-0.369781	0	0	-0.370852	-0.0703431	-0.0216102	0	-0.281497	0	0	-0.379685	0.116891	-0.283524	0.142487	-0.523375	0.277664	2.01414	1.5708	0	0	-0.115362	-0.372608	-0.810905	1.36379	1.5708	0	0
15.09	2.80267	1.36076	-0.901141	0.607504	-1.22442	0.948037	0.026687	-0.0181043	-0.286659	0.426446	-0.37038	0	0	-0.368991	-0.0717014	-0.0221354	0	-0.277355	0	0	-0.38074	0.117022	-0.285427	0.146973	-0.523842	0.2823	2.0137	1.5708	0	0	-0.114993	-0.371936	-0.813709	1.36358	1.5708	0	0
15.1	2.80306	1.36193	-0.902608	0.607954	-1.22416	0.947892	0.0288651	-0.0185028	-0.284608	0.42917	-0.369461	0	0	-0.368233	-0.0710781	-0.0211687	0	-0.276329	0	0	-0.38099	0.115882	-0.285993	0.150298	-0.522732	0.28541	2.01284	1.5708	0	0	-0.114221	-0.371486	-0.815272	1.36355	1.5708	0	0
15.11	2.7983	1.36936	-0.901415	0.608962	-1.22413	0.947338	0.0375694	-0.0191257	-0.271655	0.427307	-0.366127	0	0	-0.367795	-0.0676424	0.00797142	0	-0.277721	0	0	-0.376285	0.110397	-0.28506	0.152605	-0.520486	0.287627	2.01189	1.5708	0	0	-0.113385	-0.371914	-0.816867	1.36355	1.5708	0	0
15.12	2.85628	1.38962	-0.956709	0.603076	-1.22516	0.94514	0.042266	-0.0513305	-0.302106	0.412919	-0.364279	0	0	-0.350851	-0.034473	-0.000921172	0	-0.271649	0	0	-0.362983	0.101425	-0.297251	0.162145	-0.535198	0.292204	2.01478	1.5708	0	0	-0.119397	-0.364521	-0.808835	1.36259	1.5708	0	0
15.13	2.85788	1.37973	-0.953779	0.602917	-1.22496	0.946448	0.0343974	-0.0420705	-0.277596	0.415868	-0.362278	0	0	-0.359893	-0.0421744	0.000554217	0	-0.272589	0	0	-0.373134	0.108792	-0.300133	0.166239	-0.534813	0.293749	2.01323	1.5708	0	0	-0.116702	-0.363567	-0.809401	1.36188	1.5708	0	0
15.14	2.79568	1.36587	-0.8958	0.609346	-1.22299	0.948256	0.0345161	-0.015114	-0.271009	0.425997	-0.363586	0	0	-0.372395	-0.0724455	0.0160218	0	-0.275611	0	0	-0.378341	0.114583	-0.293992	0.167006	-0.518337	0.300477	2.00229	1.5708	0	0	-0.119888	-0.375786	-0.815144	1.36032	1.5708	0	0
15.15	2.80173	1.36603	-0.901508	0.60957	-1.22163	0.947286	0.0125251	-0.0094728	-0.280143	0.392551	-0.354173	0	0	-0.367163	-0.0716462	-0.0198991	0	-0.2745	0	0	-0.377125	0.11368	-0.295116	0.166989	-0.516688	0.299617	2.00318	1.5708	0	0	-0.122203	-0.375403	-0.816345	1.36263	1.5708	0	0
15.16	2.81697	1.38039	-0.915852	0.610382	-1.21954	0.944847	-0.0210876	-0.0065327	-0.298452	0.323135	-0.334836	0	0	-0.358228	-0.0621112	-0.0194737	0	-0.269359	0	0	-0.362663	0.100332	-0.298245	0.159206	-0.513792	0.296177	2.00643	1.5708	0	0	-0.126731	-0.378355	-0.81557	1.365	1.5708	0	0
15.17	2.80902	1.39639	-0.913965	0.611371	-1.21899	0.942938	0.0482005	-0.0394049	-0.240905	0.377505	-0.372023	0	0	-0.347428	-0.0512762	-0.0161541	0	-0.275182	0	0	-0.34901	0.0895862	-0.292963	0.155186	-0.513883	0.293114	2.01003	1.5708	0	0	-0.125249	-0.379104	-0.812651	1.36524	1.5708	0	0
15.18	2.80988	1.39451	-0.914705	0.611917	-1.21863	0.94282	0.0472839	-0.037717	-0.240291	0.379408	-0.372357	0	0	-0.34583	-0.0538651	-0.0189714	0	-0.264474	0	0	-0.353229	0.0903297	-0.290593	0.155374	-0.511813	0.289288	2.01127	1.5708	0	0	-0.115026	-0.371153	-0.821661	1.36778	1.5708	0	0
15.19	2.90804	1.41462	-1.0066	0.606194	-1.21952	0.940428	0.0478305	-0.0579432	-0.206699	0.362186	-0.362615	0	0	-0.34049	-0.0187708	-0.000993687	0	-0.266374	0	0	-0.34351	0.0777521	-0.302547	0.160704	-0.524112	0.287589	2.0173	1.5708	0	0	-0.117817	-0.366547	-0.810407	1.36832	1.5708	0	0
15.2	2.89105	1.43062	-0.993568	0.607242	-1.21864	0.938596	0.0607787	-0.0574288	-0.161739	0.352183	-0.338123	0	0	-0.322074	-0.0122184	0.00222928	0	-0.254229	0	0	-0.327671	0.0689528	-0.298704	0.156654	-0.52269	0.284526	2.018	1.5708	0	0	-0.118472	-0.368494	-0.806592	1.36855	1.5708	0	0
15.21	2.67377	1.4379	-0.769669	0.60637	-1.21845	0.93378	0.0931044	-0.0383161	-0.155786	0.366426	-0.321286	0	0	-0.268908	-0.0103067	-0.0250448	0	-0.221842	0	0	-0.299568	0.0931093	-0.300032	0.157599	-0.53101	0.282315	2.02449	1.5708	0	0	-0.107436	-0.377051	-0.822616	1.31868	1.5708	0	0
15.22	2.75749	1.40892	-0.864227	0.613159	-1.21682	0.941751	0.0701782	-0.0362379	-0.216928	0.388699	-0.340015	0	0	-0.328921	-0.0521103	-0.0200392	0	-0.241583	0	0	-0.340871	0.0906829	-0.281951	0.155701	-0.509701	0.282125	2.01208	1.5708	0	0	-0.107992	-0.375862	-0.803583	1.36209	1.5708	0	0
15.23	2.78444	1.40025	-0.889367	0.613331	-1.21669	0.94241	0.0634887	-0.0356578	-0.231646	0.399031	-0.350574	0	0	-0.337396	-0.0557337	-0.0218956	0	-0.250062	0	0	-0.353989	0.0941405	-0.280944	0.160649	-0.508036	0.280035	2.01278	1.5708	0	0	-0.104778	-0.377452	-0.800837	1.36563	1.5708	0	0
15.24	2.89572	1.42986	-0.997716	0.608304	-1.21726	0.938682	0.0657049	-0.0556315	-0.15231	0.366063	-0.33137	0	0	-0.322703	-0.013654	-0.00210059	0	-0.251361	0	0	-0.335567	0.0718762	-0.29341	0.166343	-0.518426	0.28047	2.0171	1.5708	0	0	-0.10614	-0.367613	-0.800441	1.36935	1.5708	0	0
15.25	2.88879	1.41988	-0.986421	0.607958	-1.21692	0.94	0.0590123	-0.0520623	-0.154232	0.373517	-0.33302	0	0	-0.331646	-0.0216937	-0.00135285	0	-0.252759	0	0	-0.346233	0.0804742	-0.293832	0.169583	-0.518804	0.279465	2.0171	1.5708	0	0	-0.0895347	-0.381868	-0.81585	1.31597	1.5708	0	0
15.26	2.76817	1.41036	-0.875773	0.614661	-1.21535	0.94096	0.0763625	-0.0406455	-0.221212	0.404295	-0.351454	0	0	-0.328112	-0.0520872	-0.0198204	0	-0.253466	0	0	-0.347316	0.0903889	-0.276722	0.167362	-0.504116	0.278366	2.01164	1.5708	0	0	-0.0994279	-0.377309	-0.797815	1.36797	1.5708	0	0
15.27	2.87512	1.44423	-0.980581	0.609754	-1.21564	0.936731	0.0880975	-0.0606651	-0.139419	0.382474	-0.318116	0	0	-0.309285	-0.00876621	-0.00207219	0	-0.246195	0	0	-0.323497	0.0662234	-0.289332	0.172496	-0.513528	0.279091	2.01457	1.5708	0	0	-0.102726	-0.367557	-0.798231	1.37209	1.5708	0	0
15.28	2.86784	1.44189	-0.971593	0.609925	-1.2153	0.937184	0.0871348	-0.0579424	-0.137139	0.384587	-0.31651	0	0	-0.310913	-0.0120557	-0.00160348	0	-0.24635	0	0	-0.326869	0.0695507	-0.289447	0.176413	-0.511213	0.278279	2.01205	1.5708	0	0	-0.0998529	-0.36721	-0.796998	1.37223	1.5708	0	0
15.29	2.86955	1.42541	-0.965926	0.609297	-1.21481	0.939267	0.0691445	-0.0530927	-0.154031	0.384484	-0.320836	0	0	-0.326517	-0.0240334	-0.00165726	0	-0.248735	0	0	-0.343427	0.0826295	-0.292434	0.182669	-0.511231	0.278391	2.00929	1.5708	0	0	-0.0954852	-0.365774	-0.795304	1.37119	1.5708	0	0
15.3	2.8373	1.3874	-0.931692	0.608494	-1.21776	0.945071	0.0594382	-0.0290643	-0.193798	0.454223	-0.324302	0	0	-0.355038	-0.0504229	-0.00231653	0	-0.260822	0	0	-0.387546	0.116629	-0.283379	0.204232	-0.515607	0.279653	2.00365	1.5708	0	0	-0.0768775	-0.359194	-0.793218	1.36734	1.5708	0	0
15.31	2.89162	1.41312	-0.983666	0.609787	-1.21459	0.940667	0.0595854	-0.0480041	-0.15824	0.393761	-0.324549	0	0	-0.340128	-0.0307831	0.000334816	0	-0.255653	0	0	-0.362774	0.0903778	-0.290734	0.193739	-0.508379	0.275107	2.00654	1.5708	0	0	-0.0860627	-0.36638	-0.791943	1.37312	1.5708	0	0
15.32	2.88683	1.43036	-0.984383	0.611045	-1.21379	0.938477	0.0729206	-0.0520168	-0.121805	0.377109	-0.318731	0	0	-0.324375	-0.020994	9.69841e-05	0	-0.250629	0	0	-0.348362	0.0792154	-0.284888	0.190129	-0.505579	0.269725	2.0097	1.5708	0	0	-0.0850699	-0.368196	-0.788195	1.37488	1.5708	0	0
15.33	2.77904	1.36874	-0.87623	0.615121	-1.21497	0.947148	0.0679778	-0.0136278	-0.249528	0.493867	-0.332754	0	0	-0.368072	-0.0829279	-0.0193083	0	-0.275419	0	0	-0.405848	0.129324	-0.265741	0.208322	-0.498798	0.27214	1.99845	1.5708	0	0	-0.0670165	-0.371204	-0.786557	1.36848	1.5708	0	0
15.34	2.7897	1.35352	-0.879624	0.614963	-1.21437	0.948709	0.0487796	-0.00568108	-0.267242	0.484968	-0.337678	0	0	-0.37966	-0.0949917	-0.021416	0	-0.273647	0	0	-0.420553	0.140636	-0.270109	0.218631	-0.497463	0.276772	1.99419	1.5708	0	0	-0.0652972	-0.371224	-0.787526	1.36838	1.5708	0	0
15.35	2.88907	1.3297	-0.955271	0.607874	-1.21586	0.951544	-0.0114899	-0.002736	-0.237781	0.428306	-0.346551	0	0	-0.413526	-0.0891042	-0.00211815	0	-0.277949	0	0	-0.45301	0.157072	-0.295683	0.244828	-0.5084	0.288997	1.9897	1.5708	0	0	-0.0614815	-0.359152	-0.791708	1.36922	1.5708	0	0
15.36	2.9248	1.26211	-0.962278	0.605101	-1.21695	0.959333	-0.104617	0.0423031	-0.232112	0.362784	-0.3885	0	0	-0.47871	-0.131038	-0.00457904	0	-0.296021	0	0	-0.521096	0.202425	-0.308985	0.272484	-0.507469	0.30102	1.97965	1.5708	0	0	-0.0533848	-0.357168	-0.796994	1.36975	1.5708	0	0
15.37	2.87636	1.20606	-0.910019	0.6098	-1.21714	0.966321	-0.146819	0.0890253	-0.348919	0.341118	-0.450107	0	0	-0.519869	-0.189279	-0.0310163	0	-0.315472	0	0	-0.571934	0.242618	-0.290256	0.289148	-0.495192	0.307614	1.96739	1.5708	0	0	-0.0443876	-0.365525	-0.799711	1.36722	1.5708	0	0
15.38	2.91465	1.27615	-0.95963	0.607908	-1.21523	0.957219	-0.102432	0.0380136	-0.271966	0.338376	-0.396779	0	0	-0.465903	-0.126264	-0.00742007	0	-0.295641	0	0	-0.505832	0.19295	-0.313362	0.295164	-0.499258	0.319495	1.96164	1.5708	0	0	-0.0595369	-0.359296	-0.805364	1.3698	1.5708	0	0
15.39	2.84147	1.34222	-0.919293	0.617291	-1.21042	0.948682	-0.0468776	0.0196549	-0.318196	0.333003	-0.329993	0	0	-0.402205	-0.102231	-0.0196327	0	-0.282569	0	0	-0.432722	0.143909	-0.296719	0.276544	-0.481931	0.316489	1.95611	1.5708	0	0	-0.074693	-0.374506	-0.804866	1.3705	1.5708	0	0
15.4	2.89451	1.39954	-0.981705	0.614309	-1.21052	0.941646	0.0593204	-0.0516227	-0.200734	0.404896	-0.32795	0	0	-0.362101	-0.0475978	0.00626875	0	-0.26382	0	0	-0.384274	0.106285	-0.305707	0.283403	-0.490012	0.32121	1.95665	1.5708	0	0	-0.0808688	-0.365784	-0.805464	1.37246	1.5708	0	0
15.41	2.88983	1.41553	-0.98303	0.615342	-1.20984	0.939587	0.0828111	-0.0627361	-0.200762	0.417204	-0.317612	0	0	-0.347823	-0.0378325	0.00683651	0	-0.258222	0	0	-0.370151	0.0967983	-0.30311	0.289994	-0.488792	0.323918	1.95152	1.5708	0	0	-0.0817857	-0.365882	-0.805064	1.37266	1.5708	0	0
